<?xml version="1.0" encoding="UTF-8" standalone="no"?>
<svg width="148px" height="24px" viewBox="0 0 148 24" version="1.1" xmlns="http://www.w3.org/2000/svg" xmlns:xlink="http://www.w3.org/1999/xlink" xmlns:sketch="http://www.bohemiancoding.com/sketch/ns">
    <!-- Generator: Sketch 3.5.2 (25235) - http://www.bohemiancoding.com/sketch -->
    <title>logo</title>
    <desc>Created with Sketch.</desc>
    <defs></defs>
    <g id="Page-1" stroke="none" stroke-width="1" fill="none" fill-rule="evenodd" sketch:type="MSPage">
        <g id="main-copy-2" sketch:type="MSArtboardGroup" transform="translate(-1116.000000, -909.000000)">
            <g id="logo" sketch:type="MSLayerGroup" transform="translate(1116.000000, 909.000000)">
                <path d="M97.0146912,13.9484045 C97.0146912,13.9484045 98.4892587,15.0052422 111.597449,22.5968611 C114.673366,22.1751678 113.84264,12.7426213 113.842639,12.7426214 C113.842638,12.7426215 111.017048,8 111.017048,8 L101.307134,13.1710891 L97.0146912,13.9484045 Z" id="Path-266" fill="#1168DC" sketch:type="MSShapeGroup"></path>
                <g id="Group-Copy-21" fill="#FFFFFF" sketch:type="MSShapeGroup">
                    <g id="Group" transform="translate(85.493519, 3.851852)">
                        <path d="M4.45187476,5.38716856 C4.56390094,5.38716856 4.68209806,5.42442933 4.77228863,5.47583976 C5.51375005,4.9041935 5.95093697,3.99012547 5.88210733,2.969935 C5.79523957,1.68373091 4.82450422,0.574869237 3.55139312,0.3281935 C1.37637633,-0.092994709 -0.484872226,1.88088284 0.166398626,4.06606198 C0.52811028,5.27963114 1.70818269,6.09606652 2.98224316,6.08804837 C3.28224548,6.08616175 3.56136155,6.04182615 3.83383201,5.95598488 C3.85899044,5.64091912 4.12813808,5.38716856 4.45187476,5.38716856" id="Fill-1"></path>
                        <path d="M24.3509525,5.38716856 C24.2389263,5.38716856 24.1126595,5.4173545 24.0224689,5.46923658 C23.2810075,4.89759033 22.8518903,3.99012547 22.9207199,2.969935 C23.0075877,1.68373091 23.978323,0.574869237 25.2514341,0.3281935 C27.4264509,-0.092994709 29.2876995,1.88088284 28.6364286,4.06606198 C28.274717,5.27963114 27.0946446,6.09606652 25.8205841,6.08804837 C25.5205818,6.08616175 25.2756432,6.06069237 25.0031727,5.97532275 C24.9780143,5.66025699 24.6746892,5.38716856 24.3509525,5.38716856" id="Fill-3"></path>
                        <path d="M9.81550796,6.00121663 C9.81550796,6.33845019 9.54018938,6.61201028 9.20078802,6.61201028 C8.86138666,6.61201028 8.58654277,6.33845019 8.58654277,6.00121663 C8.58654277,5.66398307 8.86138666,5.39042298 9.20078802,5.39042298 C9.54018938,5.39042298 9.81550796,5.66398307 9.81550796,6.00121663" id="Fill-5"></path>
                        <path d="M1.93664964,18.9759831 C0.888065592,18.9759831 0.0379007983,18.1312484 0.0379007983,17.0893618 L0.0379007983,3.3165545 C0.0379007983,2.27466788 0.888065592,1.42993318 1.93664964,1.42993318 C2.98523369,1.42993318 3.83539848,2.27466788 3.83539848,3.3165545 L3.83539848,17.0893618 C3.83539848,18.1312484 2.98523369,18.9759831 1.93664964,18.9759831" id="Fill-7"></path>
                        <path d="M14.0244645,11.4252057 C14.1459844,11.4252057 14.2660803,11.4053962 14.3852268,11.3827568 C14.2660803,11.4053962 14.1459844,11.4252057 14.0244645,11.4252057 M26.8818423,1.21056629 C26.2856352,0.352625246 25.1031893,0.138022071 24.240208,0.730421164 L16.1804938,6.26105155 C16.1790698,6.26010824 16.1781204,6.25869327 16.1766963,6.25774996 C15.6811229,6.64120574 15.0592826,6.8718452 14.3823787,6.8718452 C13.705,6.8718452 13.0836345,6.64120574 12.5875863,6.25774996 L12.5871116,6.25822162 L14.3857015,7.49254361 L12.5871116,6.25822162 L4.53072031,0.730421164 C3.66773896,0.138022071 2.48529312,0.352625246 1.88956067,1.21056629 C1.29335353,2.06803568 1.5098109,3.2429291 2.37279225,3.83485654 L12.5391682,10.8111105 L12.8875886,11.0497681 C13.1861669,11.2266389 13.5184479,11.3520992 13.873514,11.4143577 C14.0387051,11.4431286 14.2081685,11.4610515 14.3823787,11.4610515 C14.5537408,11.4610515 14.7213053,11.4431286 14.8845977,11.415301 C15.2638728,11.3497409 15.6175148,11.2124892 15.9317577,11.0167522 L16.1458417,10.8700674 L26.398136,3.83485654 C27.2611174,3.2429291 27.4775747,2.06803568 26.8818423,1.21056629" id="Fill-9"></path>
                        <path d="M26.8998804,18.938911 C25.8512964,18.938911 25.0011316,18.0941763 25.0011316,17.0522896 L25.0011316,3.27948239 C25.0011316,2.23759577 25.8512964,1.39286107 26.8998804,1.39286107 C27.9484645,1.39286107 28.7986293,2.23759577 28.7986293,3.27948239 L28.7986293,17.0522896 C28.7986293,18.0941763 27.9484645,18.938911 26.8998804,18.938911" id="Fill-11"></path>
                    </g>
                    <g id="Group-15" transform="translate(52.677825, 0.000000)">
                        <path d="M11.6228773,4.10646712 C7.47648451,4.10646712 4.10288251,7.45852154 4.10288251,11.5784308 C4.10288251,15.6988118 7.47648451,19.0508662 11.6228773,19.0508662 C15.7697448,19.0508662 19.1433468,15.6988118 19.1433468,11.5784308 C19.1433468,7.45852154 15.7697448,4.10646712 11.6228773,4.10646712 M11.6228773,22.8241088 C5.38263923,22.8241088 0.305384827,17.7792834 0.305384827,11.5784308 C0.305384827,5.37804989 5.38263923,0.33322449 11.6228773,0.33322449 C17.8635901,0.33322449 22.9408445,5.37804989 22.9408445,11.5784308 C22.9408445,17.7792834 17.8635901,22.8241088 11.6228773,22.8241088" id="Fill-13"></path>
                    </g>
                    <g id="Group-18" transform="translate(124.785995, 0.000000)">
                        <path d="M11.6741884,4.10646712 C7.52779557,4.10646712 4.15419357,7.45852154 4.15419357,11.5784308 C4.15419357,15.6988118 7.52779557,19.0508662 11.6741884,19.0508662 C15.8205811,19.0508662 19.1946578,15.6988118 19.1946578,11.5784308 C19.1946578,7.45852154 15.8205811,4.10646712 11.6741884,4.10646712 M11.6741884,22.8241088 C5.43395029,22.8241088 0.356695885,17.7792834 0.356695885,11.5784308 C0.356695885,5.37804989 5.43395029,0.33322449 11.6741884,0.33322449 C17.9144264,0.33322449 22.9921555,5.37804989 22.9921555,11.5784308 C22.9921555,17.7792834 17.9144264,22.8241088 11.6741884,22.8241088" id="Fill-16"></path>
                    </g>
                    <path d="M17.2370759,16.1954032 C15.8409419,17.9645836 13.6805442,19.0509134 11.3176349,19.0509134 C7.17124209,19.0509134 3.79764009,15.698859 3.79764009,11.578478 C3.79764009,7.45856871 7.17124209,4.10651429 11.3176349,4.10651429 C12.9329955,4.10651429 14.4724061,4.60741224 15.7683022,5.5549678 C16.6132454,6.17236463 17.8018622,5.99219229 18.4232277,5.15311746 C19.0445933,4.31357098 18.8632628,3.13301769 18.0187942,2.51514921 C16.065931,1.08792018 13.7485081,0.333271655 11.3176349,0.333271655 C5.07739681,0.333271655 0.000142406163,5.37809705 0.000142406163,11.578478 C0.000142406163,17.7793306 5.07739681,22.824156 11.3176349,22.824156 C16.2168816,22.824156 20.5374846,19.719249 22.0693002,15.0989134 C22.197947,14.7106283 22.1928235,14.3105898 22.0789881,13.9480826 C21.909565,13.0787104 21.1393454,12.4221605 20.2149093,12.4221605 L12.6830473,12.4221605 C11.6344632,12.4221605 10.7842984,13.2668952 10.7842984,14.3087819 C10.7842984,15.3506685 11.6344632,16.1954032 12.6830473,16.1954032 L17.2370759,16.1954032 Z" id="Fill-19"></path>
                    <path d="M42.4722584,23.1111111 C38.2997578,23.1111111 34.9057443,19.7383039 34.9057443,15.5929252 C34.9057443,14.5510385 35.7559091,13.7063039 36.8044931,13.7063039 C37.8530772,13.7063039 38.7032419,14.5510385 38.7032419,15.5929252 C38.7032419,17.6578322 40.3940778,19.3378685 42.4722584,19.3378685 C43.5208424,19.3378685 44.3710072,20.1826032 44.3710072,21.2244898 C44.3710072,22.2663764 43.5208424,23.1111111 42.4722584,23.1111111" id="Fill-22"></path>
                    <path d="M36.8043032,17.4793578 C35.7557192,17.4793578 34.9055544,16.6346231 34.9055544,15.5927365 L34.9055544,6.33367075 C34.9055544,5.29178413 35.7557192,4.44704943 36.8043032,4.44704943 C37.8528873,4.44704943 38.7030521,5.29178413 38.7030521,6.33367075 L38.7030521,15.5927365 C38.7030521,16.6346231 37.8528873,17.4793578 36.8043032,17.4793578" id="Fill-24"></path>
                </g>
            </g>
        </g>
    </g>
</svg>