<?xml version="1.0" encoding="UTF-8" standalone="no"?>
<svg width="165px" height="50px" viewBox="0 0 165 50" version="1.1" xmlns="http://www.w3.org/2000/svg" xmlns:xlink="http://www.w3.org/1999/xlink" xmlns:sketch="http://www.bohemiancoding.com/sketch/ns">
    <!-- Generator: Sketch 3.5.2 (25235) - http://www.bohemiancoding.com/sketch -->
    <title>store</title>
    <desc>Created with Sketch.</desc>
    <defs></defs>
    <g id="Page-1" stroke="none" stroke-width="1" fill="none" fill-rule="evenodd" sketch:type="MSPage">
        <g id="main-copy-2" sketch:type="MSArtboardGroup" transform="translate(-638.000000, -2008.000000)">
            <g id="store" sketch:type="MSLayerGroup" transform="translate(638.000000, 2008.000000)">
                <g id="Group-Copy" fill="#181A2C" sketch:type="MSShapeGroup">
                    <rect id="container" x="0" y="0" width="165" height="50" rx="6.99999988"></rect>
                </g>
                <g id="Group" transform="translate(44.745763, 15.666667)" fill="#FFFFFF" sketch:type="MSShapeGroup">
                    <path d="M62.8775847,14.9006944 L61.7491525,15.9576389 C61.4890678,16.1 61.2296822,16.2652778 60.9709958,16.3826389 C60.1872458,16.7361111 59.3902119,16.825 58.6819703,16.825 C57.9282839,16.825 56.7467161,16.7770833 55.5420763,15.9111111 C53.8676059,14.7388889 53.1355932,12.7256944 53.1355932,10.9708333 C53.1355932,7.3375 56.1132839,5.55555556 58.5414407,5.55555556 C59.390911,5.55555556 60.2627542,5.76666667 60.9716949,6.21180556 C62.1504661,6.98541667 62.4552966,7.99166667 62.6244915,8.53125 L57.0774153,10.7569444 L55.2610169,10.8972222 C55.8490042,13.8756944 57.8779449,15.6083333 60.1201271,15.6083333 C61.2401695,15.6083333 62.0714619,15.2458333 62.8342373,14.8708333 C62.8335381,14.8715278 62.9866525,14.7923611 62.8775847,14.9006944 L62.8775847,14.9006944 Z M59.5314407,8.975 C59.9823941,8.8125 60.215911,8.67152778 60.215911,8.34583333 C60.215911,7.40972222 59.1497034,6.32916667 57.8772458,6.32916667 C56.934089,6.32916667 55.1652331,7.05833333 55.1652331,9.58958333 C55.1652331,9.98472222 55.2120763,10.4055556 55.2365466,10.8263889 L59.5314407,8.975 L59.5314407,8.975 Z" id="Shape"></path>
                    <path d="M51.179209,13.5552083 C51.179209,14.3903935 51.3246328,14.5202546 52.0138418,14.5851852 C52.3730508,14.6284722 52.7310169,14.648206 53.0858757,14.6908565 L52.3102825,15.163831 L48.6144068,15.163831 C49.0991525,14.5196181 49.1824294,14.4559606 49.1824294,14.0262731 L49.1824294,13.5469329 L49.1743503,0.775347222 L47.5423729,0.775347222 L49.1128249,0 L52.1120339,0 C51.4619774,0.385127315 51.2680791,0.620659722 51.1841808,1.37181713 L51.179209,13.5552083 L51.179209,13.5552083 Z" id="Shape"></path>
                    <path d="M44.6371884,7.72713675 C45.1465005,8.13547009 46.2111864,9.00149573 46.2111864,10.6457265 C46.2111864,12.2476496 45.2840279,13.0027778 44.3489731,13.7175214 C44.0620738,13.9989316 43.7271386,14.3040598 43.7271386,14.7758547 C43.7271386,15.2540598 44.0627318,15.5136752 44.3042273,15.707265 L45.1063609,16.3104701 C46.0815553,17.1123932 46.9705484,17.8476496 46.9705484,19.3412393 C46.9705484,21.3764957 44.9490927,23.4277778 41.1292522,23.4277778 C37.9115055,23.4277778 36.3559322,21.9354701 36.3559322,20.3348291 C36.3559322,19.5553419 36.7533799,18.4521368 38.0674576,17.6970085 C39.4440479,16.8771368 41.3095513,16.7675214 42.3077767,16.7034188 C41.9958724,16.3111111 41.6398804,15.9002137 41.6398804,15.2297009 C41.6398804,14.8630342 41.7530608,14.6444444 41.8622931,14.3867521 C41.6194816,14.409188 41.3746959,14.432265 41.1522832,14.432265 C38.7972084,14.432265 37.4653639,12.7207265 37.4653639,11.033547 C37.4653639,10.0386752 37.9312463,8.93547009 38.888016,8.13482906 C40.1540578,7.11944444 41.6635693,6.94444444 42.8631505,6.94444444 L47.4390628,6.94444444 L46.0164108,7.72713675 L44.6371884,7.72713675 L44.6371884,7.72713675 Z M43.0631904,17.3303419 C42.8815753,17.307265 42.772343,17.307265 42.5525623,17.307265 C42.3512064,17.307265 41.1516251,17.3495726 40.2224925,17.6534188 C39.7309472,17.8284188 38.3102692,18.3457265 38.3102692,19.882906 C38.3102692,21.4162393 39.8441276,22.5213675 42.2176271,22.5213675 C44.3489731,22.5213675 45.4814357,21.5258547 45.4814357,20.1854701 C45.4807777,19.082265 44.7483948,18.5002137 43.0631904,17.3303419 L43.0631904,17.3303419 Z M43.7021336,13.2200855 C44.2153938,12.7213675 44.2601396,12.0316239 44.2601396,11.6393162 C44.2601396,10.083547 43.3079761,7.66047009 41.4622134,7.66047009 C40.8864407,7.66047009 40.2626321,7.94252137 39.9086142,8.37713675 C39.5335394,8.82777778 39.4210169,9.41239316 39.4210169,9.97457265 C39.4210169,11.4232906 40.2876371,13.8258547 42.1959123,13.8258547 C42.7519442,13.8258547 43.3507478,13.5623932 43.7021336,13.2200855 L43.7021336,13.2200855 Z" id="Shape"></path>
                    <path d="M30.587677,16.7770833 C27.0580259,16.7770833 25.1694915,13.8756944 25.1694915,11.25 C25.1694915,8.18125 27.5436491,5.55555556 30.9206381,5.55555556 C34.1851047,5.55555556 36.2295912,8.25277778 36.2295912,11.0847222 C36.2295912,13.85 34.2087936,16.7770833 30.587677,16.7770833 L30.587677,16.7770833 Z M33.3645464,14.88125 C33.9014955,14.13125 34.0317846,13.1951389 34.0317846,12.2826389 C34.0317846,10.21875 33.1000199,6.28263889 30.3461815,6.28263889 C29.6137986,6.28263889 28.8761515,6.58472222 28.3444666,7.07847222 C27.4771884,7.89861111 27.3225523,8.92847222 27.3225523,9.93958333 C27.3225523,12.2548611 28.406321,16.0736111 31.0976471,16.0736111 C31.9668993,16.0736111 32.8532602,15.6298611 33.3645464,14.88125 L33.3645464,14.88125 Z" id="Shape"></path>
                    <path d="M20.7975673,16.7770833 C17.2672582,16.7770833 15.3813559,13.8756944 15.3813559,11.25 C15.3813559,8.18125 17.7561715,5.55555556 21.1318445,5.55555556 C24.394337,5.55555556 26.4368495,8.25277778 26.4368495,11.0847222 C26.4375075,13.85 24.419342,16.7770833 20.7975673,16.7770833 L20.7975673,16.7770833 Z M23.5750947,14.88125 C24.1080957,14.13125 24.2410169,13.1951389 24.2410169,12.2826389 C24.2410169,10.21875 23.3066201,6.28263889 20.5554138,6.28263889 C19.8203988,6.28263889 19.0906481,6.58472222 18.5576471,7.07847222 C17.6890528,7.89861111 17.5350748,8.92847222 17.5350748,9.93958333 C17.5350748,12.2548611 18.6234497,16.0736111 21.3101695,16.0736111 C22.1774477,16.0736111 23.0624925,15.6298611 23.5750947,14.88125 L23.5750947,14.88125 Z" id="Shape"></path>
                    <path d="M14.5768441,15.8044686 L11.5513983,16.4919686 C10.3255711,16.6839372 9.22480103,16.8533213 8.05916175,16.8533213 C2.22294031,16.8533213 0,12.5861715 0,9.24764493 C0,5.16914251 3.15050295,1.38888889 8.54534635,1.38888889 C9.68691046,1.38888889 10.7856743,1.55561594 11.7861312,1.82596618 C13.3717483,2.26902174 14.1127284,2.81370773 14.5768441,3.13387681 L12.819357,4.79184783 L12.0783769,4.95658213 L12.6066931,4.1196256 C11.8911256,3.42548309 10.5756853,2.14414251 8.07922439,2.14414251 C4.74147015,2.14414251 2.22294031,4.66431159 2.22294031,8.34359903 C2.22294031,12.2952295 5.09858511,16.0123792 9.70897937,16.0123792 C11.0638762,16.0123792 11.7613873,15.742029 12.3946979,15.4896135 L12.3946979,12.1019324 L9.20072587,12.2726449 L10.8940125,11.3692633 L15.3766746,11.3692633 L14.8289646,11.8933575 C14.6805011,12.0182367 14.6611072,12.0607488 14.6196444,12.2281401 C14.5975755,12.4194444 14.5775129,13.0278986 14.5775129,13.2417874 L14.5775129,15.8044686 L14.5768441,15.8044686 Z" id="Shape"></path>
                    <path d="M68.3120975,14.1868687 L68.3120975,19.6136364 L67.1186441,19.6136364 L67.1186441,5.80555556 L68.3120975,5.80555556 L68.3120975,7.37752525 C69.0888559,6.36174242 70.5095339,5.55555556 72.1602331,5.55555556 C75.1190466,5.55555556 77.1130297,7.58270202 77.1130297,10.7916667 C77.1130297,13.9791667 75.1190466,16.0486111 72.1602331,16.0486111 C70.6025212,16.0492424 69.2070127,15.3238636 68.3120975,14.1868687 L68.3120975,14.1868687 Z M75.8307839,10.792298 C75.8307839,8.37373737 74.4345763,6.5290404 71.9588771,6.5290404 C70.4214407,6.5290404 68.9511229,7.62058081 68.3120975,8.57133838 L68.3120975,12.9911616 C68.9511229,13.9444444 70.4214407,15.0751263 71.9588771,15.0751263 C74.4345763,15.0751263 75.8307839,13.2146465 75.8307839,10.792298 L75.8307839,10.792298 Z" id="Shape"></path>
                    <path d="M78.3050847,15.1963384 L78.3050847,1.38888889 L79.497839,1.38888889 L79.497839,15.1963384 L78.3050847,15.1963384 L78.3050847,15.1963384 Z" id="Shape"></path>
                    <path d="M91.9815339,19.8592172 C92.2190593,19.9614899 92.6255932,20.0252525 92.884,20.0252525 C93.5652542,20.0252525 94.0396525,19.7556818 94.4657627,18.8030303 L95.278178,17.0227273 L90.8898305,6.94444444 L92.1322712,6.94444444 L95.8961356,15.6780303 L99.6234576,6.94444444 L100.883517,6.94444444 L95.5320169,19.1369949 C94.9767034,20.3933081 94.1029492,20.9974747 92.9029237,20.9974747 C92.5427203,20.9974747 92.068322,20.9349747 91.7896864,20.852904 L91.9815339,19.8592172 L91.9815339,19.8592172 Z" id="Shape"></path>
                    <path d="M89.7769948,16.7951389 C89.6911604,16.4138889 89.6264081,16.0784722 89.5789733,15.7972222 C89.5390678,15.5173611 89.5172327,15.23125 89.5172327,14.9402778 C89.0760137,15.5368056 88.4518318,16.0333333 87.6544752,16.425 C86.8563657,16.8180556 86.0989146,17.0118056 85.0583605,17.0118056 C83.8062321,17.0118056 82.8349478,16.7277778 82.1407432,16.1513889 C81.4495502,15.5756944 81.1016949,14.7958333 81.1016949,13.8090278 C81.1016949,12.8236111 81.6054074,12.0236111 82.6098207,11.4118056 C83.614234,10.7972222 84.9130443,10.4923611 86.5190515,10.4923611 L89.5164798,10.4923611 L89.5164798,9.12569444 C89.5164798,8.33888889 89.2250945,7.72083333 88.6453357,7.27152778 C88.0625652,6.82291667 87.2448794,6.59513889 86.1839961,6.59513889 C85.2149707,6.59513889 84.4289081,6.80277778 83.8303259,7.20694444 C83.2370143,7.61944444 82.9388527,8.13055556 82.9388527,8.74652778 L81.6234778,8.74652778 L81.5963722,8.6875 C81.5481845,7.85763889 81.960792,7.12847222 82.8364537,6.5 C83.7075978,5.87152778 84.8505508,5.55555556 86.2562777,5.55555556 C87.656734,5.55555556 88.7906519,5.86666667 89.6459844,6.4875 C90.499811,7.10208333 90.9282301,7.99027778 90.9282301,9.15138889 L90.9282301,14.5756944 C90.9282301,14.9652778 90.9478064,15.3416667 91.0012647,15.7083333 C91.0554759,16.0756944 91.1420632,16.4423611 91.2572621,16.7965278 L89.7769948,16.7965278 L89.7769948,16.7951389 Z M85.2164765,15.93125 C86.3082301,15.93125 87.0927868,15.70625 87.895414,15.2611111 C88.6920176,14.8180556 89.2333768,14.2409722 89.5179857,13.5423611 L89.5179857,11.43125 L86.5062516,11.43125 C85.3557692,11.43125 84.4033083,11.6659722 83.6541395,12.1402778 C82.9034648,12.6125 82.5224804,13.1840278 82.5224804,13.8486111 C82.5224804,14.475 82.7634192,14.9770833 83.2430378,15.3569444 C83.7226565,15.7409722 84.3792145,15.93125 85.2164765,15.93125 L85.2164765,15.93125 Z" id="Shape"></path>
                </g>
                <path d="M29.8851842,26.0664683 L33.5472845,22.3723413 L33.5459469,22.3723413 L29.8851842,26.0664683 L18.19736,14.2777778 L18.1966912,14.2777778 L29.8851842,26.0684921 L18.1779661,37.8780952 L29.8851842,26.0684921 L33.5633346,29.7788095 L33.5653408,29.7788095 L29.8851842,26.0664683 Z" id="Shape" sketch:type="MSShapeGroup"></path>
                <path d="M17.418942,35.463228 C17.0317097,35.3617657 16.779661,34.9877892 16.779661,34.4090775 L16.779661,15.306655 C16.779661,14.7706798 16.9930743,14.4092036 17.3313756,14.2777778 L17.3313756,14.2777778 L26.9816715,24.9232864 L17.418942,35.463228 L17.418942,35.463228 Z M18.7473746,35.0577448 L30.3632854,28.6536383 L27.5340652,25.5326472 L18.7473746,35.0577448 L18.7473746,35.0577448 Z M30.4432736,21.1079443 L18.9892431,14.7916183 L27.5508138,24.2959837 L30.4432736,21.1079443 L30.4432736,21.1079443 Z M31.2204203,21.5365019 L35.7074787,24.0108907 C36.5570495,24.4793866 36.5648189,25.2345968 35.7074787,25.7072672 L31.1069021,28.2436661 L28.1061559,24.9124797 L31.2204203,21.5365019 L31.2204203,21.5365019 Z" id="google-play" fill="#FFFFFF" sketch:type="MSShapeGroup"></path>
            </g>
        </g>
    </g>
</svg>